<svg xmlns="http://www.w3.org/2000/svg" viewBox="0 0 422.3391 111.2882"><path d="M376.7059,279.3824" transform="translate(-38.8304 -194.3559)" style="fill:#fff;stroke:#231f20;stroke-miterlimit:10"/><path d="M-182.4716,279.3824" transform="translate(-38.8304 -194.3559)" style="fill:#fff;stroke:#231f20;stroke-miterlimit:10"/><path d="M51.5356,240.4026l1.7357,3.1531c-.9236-3.0694-2.7869-6.0181-.4213-9.5882,1.3568,4.0433,2.6437,7.8784,3.9307,11.7135l.4686-.1395c-1.0169-3.28-1.9286-6.5973-3.0843-9.8274-.9112-2.5466-1.3531-4.9489.8055-7.7327,1.38,6.0289,2.6868,11.7381,4.1286,18.0373L84.6136,253.93l-.2225.8025c-.6355-.1151-1.2865-.1765-1.9044-.3534q-11.5039-3.2949-23-6.6193c-3.1767-.9159-3.4637-.7444-4.4774,2.8032l32.7475,7.9026-.2233.9846-33.4673-7.2745L52.7118,255.83l37.9674,6.6747-.16.9663-37.9585-5.7158c-.0829,1.25-.1532,2.31-.248,3.7393l40.8815,4.5072.0168.6695a6.87,6.87,0,0,1-1.6036.2431c-12.34-1.0507-24.675-2.1607-37.0189-3.1612-1.6585-.1344-2.4828-.609-2.6579-2.3432-.3573-3.54-1.0694-7.0548-1.2574-10.6-.1815-3.4248.1121-6.8749.197-10.3138Z" transform="translate(-38.8304 -194.3559)"/><path d="M116.8635,201.5266l-2.6839-1.763-22.0995,32.9-.8534-.5711,21.0971-33.113-1.5563-1.2118.3322-.8293,19.5793,6.9649-.1075.8365-1.1693.3738,6.7369,2.5164-.2776.8839c-3.73-.27-7.4646-.4861-11.1874-.8319a4.6606,4.6606,0,0,0-4.4545,1.8369c-5.5659,6.5915-11.2889,13.0505-16.9717,19.5429a12.4045,12.4045,0,0,1-2.3228,2.0512c1.3308-3.5053,19.9975-25.1412,21.4817-25.599l-3.2418-1.3666.0956-.712,2.5741-.72c-2.3829-.2778-3.8777,1.043-5.3278,2.9847-6.0967,8.1625-12.342,16.2141-18.5565,24.2882a6.2358,6.2358,0,0,1-2.0851,1.7177Z" transform="translate(-38.8304 -194.3559)"/><path d="M108.8742,282.9688c.3066,1.0607.6484,2.2426,1.0769,3.7249-4.9888,2.5258-10.1883,5.1617-15.3914,7.7905-2.2077,1.1154-4.4936,2.0973-6.6129,3.36-1.7962,1.07-3.2012.6528-4.9467-.6237L108.79,285.5731l-.2312-.7264a27.0957,27.0957,0,0,0-2.62.7872c-7.8839,3.2321-15.7717,6.4557-23.62,9.7714-1.6962.7165-3.1129.8505-4.6929-.9477Z" transform="translate(-38.8304 -194.3559)"/><path d="M63.02,241.76l17.7726,6.8344-.3451.901c-3.05-1.0679-6.1044-2.1263-9.1505-3.2065-2.9381-1.0418-5.85-2.16-8.8124-3.1278a16.3624,16.3624,0,0,0-3.2982-.309c-1.1191-5.0649-2.4666-10.5516-3.4521-16.1025-.2159-1.2159.8577-2.6607,1.8979-3.9459q1.5144,9.3524,3.0286,18.7045l.5984-.0082a15.06,15.06,0,0,0-.0311-1.8343c-.7377-5.4565-1.4221-10.9222-2.2922-16.3579a5.6242,5.6242,0,0,1,2.229-5.7975C61.7941,225.7364,62.3953,233.5953,63.02,241.76Z" transform="translate(-38.8304 -194.3559)"/><path d="M127.7487,291.3513l4.3057-1.0707-14.3707-33.5928.8919-.3858,15.0565,33.2158,3.2076-.7225-.0547-.0453c-3.4549,3.4651-7.3207,6.27-12.1343,7.5509Q126.2,293.8261,127.7487,291.3513Z" transform="translate(-38.8304 -194.3559)"/><path d="M144.8673,217.2828c-6.2079-1.4323-12.0144-2.6263-17.7271-4.1685a3.9092,3.9092,0,0,0-4.4472,1.3433c-4.6314,4.8283-9.3728,9.5514-14.0925,14.2944a4.1087,4.1087,0,0,1-2.5754,1.3263c.42-.5123.81-1.0535,1.2656-1.5326,5.1147-5.3834,10.276-10.7233,15.3333-16.16a3.648,3.648,0,0,1,3.83-1.2607c4.3078.8563,8.6343,1.6723,12.9892,2.2163A6.2585,6.2585,0,0,1,144.8673,217.2828Z" transform="translate(-38.8304 -194.3559)"/><path d="M150.5976,227.5313,126.5,218.033l-13.4979,11.8793-.6475-.7684c4.4224-4.0865,8.8241-8.1961,13.3035-12.2192a2.3686,2.3686,0,0,1,1.9462-.1475c6.7732,2.2651,13.5555,4.5119,20.2528,6.9873,1.3152.4861,2.2785,1.9252,3.4041,2.9248Z" transform="translate(-38.8304 -194.3559)"/><path d="M117.59,291.3651l2.3777-1.31c-2.1055-7.4667-4.1616-14.758-6.2177-22.0494l.9043-.261c.9578,3.0743,1.9266,6.1453,2.87,9.2239,1.0455,3.4105,1.9376,6.8752,3.1493,10.2248.7376,2.0392.89,3.79-.6419,5.457l-6.9871,6.8909-5.5409,2.5642-.5074-.9229c2.3212-2.0754,4.6687-4.1227,6.9465-6.2449a13.8031,13.8031,0,0,0,1.5472-2.0884Z" transform="translate(-38.8304 -194.3559)"/><path d="M66.2117,238.96c.18-8.7683.2851-17.3715.6038-25.9669.0515-1.39,1.05-2.7447,1.6113-4.1158l1.0846.323q-.8875,14.4309-1.7774,28.8985l8.1982,4.0188-.3883.8212Z" transform="translate(-38.8304 -194.3559)"/><path d="M127.44,223.8771l-6.6152,4.8283-.53-.7462,7.0577-5.7367c8.5624,4.4171,17.1206,8.7713,25.5909,13.29.9079.4844,1.3038,1.9291,1.9371,2.9283l-.6123.6057Z" transform="translate(-38.8304 -194.3559)"/><path d="M96.9486,197.5725,81.491,234.3066l-.8271-.2962A11.0459,11.0459,0,0,1,81.03,232.38c4.2592-11.0409,8.5084-22.0858,12.8544-33.0924.3771-.9551,1.4145-1.6493,2.1452-2.4647Z" transform="translate(-38.8304 -194.3559)"/><path d="M153.18,262.8618l-28.4883-28.3087.5615-.6469a6.8048,6.8048,0,0,1,1.1382.7112c8.7772,8.2226,17.5634,16.4359,26.2751,24.7275.7943.756,1.0981,2.0275,1.63,3.06Z" transform="translate(-38.8304 -194.3559)"/><path d="M154.4038,256.9625l-28.9233-25.2454,1.0627-1.334a11.6616,11.6616,0,0,0,1.519,1.8944c8.4982,7.0065,17.0493,13.9491,25.5073,21.0035.8927.7446,1.2781,2.0978,1.8989,3.1686Z" transform="translate(-38.8304 -194.3559)"/><path d="M102.8981,197.3466q-9.09,18.2261-18.18,36.452l-.816-.3519a9.5175,9.5175,0,0,1,.4033-1.341c5.1861-11.1484,10.3615-22.3019,15.6238-33.4143.4194-.8857,1.4535-1.48,2.202-2.21Z" transform="translate(-38.8304 -194.3559)"/><path d="M99.7226,275.1192c-5.3079.8594-10.5991,1.8474-15.9282,2.5463-6.9154.907-13.8648,1.5519-20.7906,2.3848-1.5462.1859-2.7082.0568-3.1719-1.9954L99.6711,274.7Z" transform="translate(-38.8304 -194.3559)"/><path d="M151.206,268.5211l-27.3469-30.9518.5538-.6218a12.9536,12.9536,0,0,1,1.4162,1.1518q12.6645,13.56,25.2677,27.1772c.6634.7209.8047,1.9226,1.1885,2.9009Z" transform="translate(-38.8304 -194.3559)"/><path d="M56.688,272.8408l41.01-.7735q.0224.5079.0449,1.0158c-3.09.1758-6.1781.3764-9.2691.5229q-14.4153.6835-28.8322,1.3349C58.2386,275.0059,56.88,275.0178,56.688,272.8408Z" transform="translate(-38.8304 -194.3559)"/><path d="M91.038,198.576c-4.2119,12.1327-8.3941,24.18-12.5764,36.2276l-1.0679-.36c1.1885-3.8664,2.3648-7.7365,3.568-11.5982,2.2889-7.3458,4.6275-14.6764,6.8639-22.0381C88.309,199.2156,88.9347,198.1627,91.038,198.576Z" transform="translate(-38.8304 -194.3559)"/><path d="M74.4614,234.9353q2.6232-11.0562,5.2468-22.1123c.8059-3.3932,1.5087-6.817,2.4878-10.16.3185-1.0874,1.365-1.9613,2.0785-2.9329l.9633.5423q-4.7989,17.5133-9.5981,35.0265Z" transform="translate(-38.8304 -194.3559)"/><path d="M127.7487,291.3513q-1.5489,2.4749-3.098,4.95c-1.482.8228-2.9427,1.69-4.47,2.4173-.2132.1014-.7555-.489-1.1458-.7585l4.3415-5.2892,2.6828-2.0257q-5.0863-14.3418-10.1452-28.6059l.6092-.2994a7.9575,7.9575,0,0,1,.82,1.3229q5.0625,13.3353,10.0759,26.6892A10.1954,10.1954,0,0,1,127.7487,291.3513Z" transform="translate(-38.8304 -194.3559)"/><path d="M72.7167,291.0541l32.591-9.4376.3568,1.1571c-2.7975.9628-5.5856,1.9539-8.3942,2.8829-6.8844,2.2772-13.7593,4.5867-20.6865,6.7261-1.1643.36-2.5712-.0666-3.8661-.13Z" transform="translate(-38.8304 -194.3559)"/><path d="M103.6346,280.6565q-4.7388,1.2119-9.4778,2.4232c-7.5574,1.9248-15.1012,3.9071-22.6888,5.7041-1.1134.2637-2.4365-.3583-3.6626-.57l.12-.9818,35.3988-7.7531Z" transform="translate(-38.8304 -194.3559)"/><path d="M148.7063,274.0346l-25.7877-33.241.5712-.5289a9.147,9.147,0,0,1,1.1991,1.0426q12.1071,14.81,24.15,29.6714c.5467.678.554,1.7912.8121,2.702Z" transform="translate(-38.8304 -194.3559)"/><path d="M94.8291,300.5494q7.6268-4.854,15.2558-9.7046c3.9026-2.4677,3.9312-2.4568,2.9683-7.0594-.4509-2.1548-1.041-4.281-1.4665-6.44a3.326,3.326,0,0,1,.5243-2.4893c1.0678,4.4338,2.1839,8.8571,3.143,13.3143a2.44,2.44,0,0,1-.9269,1.9315c-4.8739,3.5824-9.7446,7.1792-14.7841,10.5183-1.1605.7689-2.9649.5657-4.4729.81Q94.95,300.99,94.8291,300.5494Z" transform="translate(-38.8304 -194.3559)"/><path d="M101.825,278.7225c-5.5013.8907-11.0091,1.743-16.5021,2.6824-6.1458,1.0512-12.2685,2.2412-18.4253,3.22a4.0993,4.0993,0,0,1-3.1525-1.2289l37.821-6.1237Z" transform="translate(-38.8304 -194.3559)"/><path d="M95.5427,270.2437q-17.2977-.3465-34.5954-.6927a46.17,46.17,0,0,1-4.9419-.1462c-.7462-.0958-1.4161-.7854-2.1206-1.2056l.3614-.8757L95.6313,269.19Z" transform="translate(-38.8304 -194.3559)"/><path d="M127.0156,228.1149q4.4572,3.1462,8.9134,6.2939c5.9887,4.2534,12.0079,8.4659,17.92,12.8231.98.7223,1.4834,2.092,2.2071,3.1626l-.84.7356-28.9314-22.0674Z" transform="translate(-38.8304 -194.3559)"/><path d="M87.2707,232.7705c6.3447-11.5608,12.6724-23.131,19.0822-34.6556.34-.6119,1.3748-.8376,2.0861-1.2431l.5438.6935-20.7855,35.72Z" transform="translate(-38.8304 -194.3559)"/><path d="M79.68,202.6825l-6.7986,33.284-1.1227-.1629c.0892-.9009.1286-1.81.2753-2.7014,1.5156-9.2117,2.995-18.43,4.6419-27.6184.2141-1.1947,1.3159-2.23,2.0066-3.3393Z" transform="translate(-38.8304 -194.3559)"/><path d="M154.8869,244.9608,126.836,226.3455l.55-.8895a17.3571,17.3571,0,0,1,1.7983.8377c8.0746,4.9087,16.17,9.7851,24.17,14.8125,1.0741.675,1.6573,2.1317,2.4678,3.2265Z" transform="translate(-38.8304 -194.3559)"/><path d="M122.71,243.696q10.1807,14.3081,20.3613,28.6162c1.0091,1.4184,2.101,2.7881,2.9835,4.2816a6.7645,6.7645,0,0,1,.4133,2.2785l-.9713.274L121.814,244.2006Z" transform="translate(-38.8304 -194.3559)"/><path d="M68.9206,236.6776c.2886-3.2487.5692-6.4981.8677-9.7459.5453-5.934,1.1419-11.8637,1.6284-17.8025.1495-1.8239.7318-3.115,3.036-3.5829-1.4217,10.56-2.8182,20.9325-4.2147,31.3048Z" transform="translate(-38.8304 -194.3559)"/><path d="M141.8011,283.9059l-21.2137-36.0066.6024-.4286a6.3459,6.3459,0,0,1,.8977.9481q10.0007,16.1285,19.9412,32.2937a10.4749,10.4749,0,0,1,.7655,2.8914Z" transform="translate(-38.8304 -194.3559)"/><path d="M136.84,288.7953a11.1644,11.1644,0,0,0-.57-3.013c-5.2644-10.5-10.6056-20.9617-15.911-31.4414a3.9357,3.9357,0,0,1-.4377-2.701,12.1365,12.1365,0,0,1,.957,1.3391c5.6913,10.6927,11.3264,21.4157,17.0884,32.07,1.0273,1.9.9813,3.0275-1.181,3.701Z" transform="translate(-38.8304 -194.3559)"/><path d="M127.1936,219.3206c8.11,3.4743,15.8891,6.73,23.5779,10.1871,1.1022.4956,1.7676,1.963,2.4315,3.142C147.94,231.7486,127.7408,221.3762,127.1936,219.3206Z" transform="translate(-38.8304 -194.3559)"/><path d="M63.7647,239.5085c-.4257-7.5792-.9338-15.1557-1.1915-22.7406-.04-1.18,1.0627-2.4,2.0739-3.45.3479,8.8539.9726,17.565.38,26.25Z" transform="translate(-38.8304 -194.3559)"/><path d="M112.91,287.9738c-3.75,2.27-7.3241,4.4385-10.9034,6.5979-2.5054,1.5114-5.1025,2.8892-7.5,4.5549-1.7795,1.2362-3.4278,1.5174-5.295.446C91.7321,296.816,110.9363,287.178,112.91,287.9738Z" transform="translate(-38.8304 -194.3559)"/><path d="M148.8346,222.1156c-8.2974-1.3349-22.3175-6.4709-22.9352-8.4775,6.6568,1.7066,13.1959,3.2813,19.6544,5.137C146.6536,219.0911,147.4077,220.6109,148.8346,222.1156Z" transform="translate(-38.8304 -194.3559)"/><path d="M117.59,291.3651l-2.1,1.4839c-2.8091,2.3372-5.7211,4.5639-8.3913,7.05a5.9643,5.9643,0,0,1-6.4,1.5138c1.5507-1.182,2.8774-2.2034,4.2147-3.2107,3.5036-2.6391,6.9877-5.3054,10.5426-7.8737a6.3258,6.3258,0,0,1,2.2129-.55Q117.63,290.5719,117.59,291.3651Z" transform="translate(-38.8304 -194.3559)"/><path d="M123.096,208.22c4.758.4,9.3918.6231,13.9645,1.2753,1.3359.19,2.4979,1.6016,4.0507,2.6666C135.9535,212.7646,124.1363,210.2123,123.096,208.22Z" transform="translate(-38.8304 -194.3559)"/><path d="M123.3761,292.6705l-4.3415,5.2892c-1.7.8964-3.39,1.8141-5.1254,2.6365-.0991.047-.5674-.6854-.8639-1.0551l6.9872-6.891,3.6639-2.1367.4963.6226Z" transform="translate(-38.8304 -194.3559)"/><path d="M57.6008,248.2656a.2468.2468,0,0,1-.27-.333L77.3142,196.536a.2469.2469,0,0,1,.3636-.1182l41.4927,26.6561a.2467.2467,0,0,1-.0412.4365l-61.4757,24.74A.2355.2355,0,0,1,57.6008,248.2656ZM77.665,196.9965,57.998,247.58l60.5036-24.3489Z" transform="translate(-38.8304 -194.3559)" style="fill:#ed1c24"/><path d="M57.6008,248.2656a.2471.2471,0,0,1-.1748-.0372L41.0441,237.503a.2467.2467,0,0,1-.0486-.3711L77.36,196.4609a.2469.2469,0,0,1,.4141.2541l-19.983,51.3961a.2461.2461,0,0,1-.1547.1457A.2392.2392,0,0,1,57.6008,248.2656ZM41.5546,237.2469l15.8872,10.4016L76.821,197.8049Z" transform="translate(-38.8304 -194.3559)" style="fill:#ed1c24"/><path d="M70.1955,292.1336a.2472.2472,0,0,1-.2573-.1278L40.9613,237.4124a.247.247,0,0,1,.3535-.3225l16.3819,10.7254a.2473.2473,0,0,1,.102.1384l12.5949,43.8679a.247.247,0,0,1-.1449.297A.2406.2406,0,0,1,70.1955,292.1336ZM41.8478,238.0293l27.42,51.66L57.3493,248.1783Z" transform="translate(-38.8304 -194.3559)" style="fill:#ed1c24"/><path d="M111.5992,288.6685l-.019.0021-41.4034,3.465a.2466.2466,0,0,1-.2579-.1775L57.3241,248.09a.2471.2471,0,0,1,.3852-.266l53.9984,40.4029a.2471.2471,0,0,1-.1085.4415ZM70.3376,291.627l40.5537-3.3939-52.89-39.5737Z" transform="translate(-38.8304 -194.3559)" style="fill:#ed1c24"/><path d="M111.5992,288.6685a.2479.2479,0,0,1-.1874-.0459L57.4134,248.22a.2468.2468,0,0,1,.0557-.4266l61.4757-24.74a.2437.2437,0,0,1,.242.0326.2467.2467,0,0,1,.0956.2244l-7.4774,65.1431a.2481.2481,0,0,1-.1475.1988A.2562.2562,0,0,1,111.5992,288.6685ZM58.0606,248.0871,111.3634,287.97l7.3813-64.3041Z" transform="translate(-38.8304 -194.3559)" style="fill:#ed1c24"/><path d="M119.0765,223.5253a.2461.2461,0,0,1-.1728-.036L77.4109,196.8332a.247.247,0,0,1-.1-.2865.2445.2445,0,0,1,.2532-.1673l62.6184,4.929a.2468.2468,0,0,1,.1578.4182l-21.1256,21.7271A.245.245,0,0,1,119.0765,223.5253ZM78.5042,196.9487l40.4965,26.016,20.6186-21.2055Z" transform="translate(-38.8304 -194.3559)" style="fill:#ed1c24"/><path d="M111.5992,288.6685a.2467.2467,0,0,1-.2848-.2719l7.4773-65.1432a.2469.2469,0,0,1,.1509-.2.25.25,0,0,1,.2477.0341L162.4761,257.34a.2469.2469,0,0,1-.0249.4045l-50.7631,30.8913A.2411.2411,0,0,1,111.5992,288.6685Zm7.6325-64.9182-7.3692,64.201,50.0289-30.4442Z" transform="translate(-38.8304 -194.3559)" style="fill:#ed1c24"/><path d="M162.3623,257.7772a.2486.2486,0,0,1-.1927-.05l-43.2858-34.2519a.2474.2474,0,0,1-.0238-.3659l21.1257-21.727a.2488.2488,0,0,1,.2255-.07.2461.2461,0,0,1,.181.1512l22.16,55.9789a.2472.2472,0,0,1-.19.3346Zm-42.9576-34.5194,42.35,33.5114L140.0737,202Z" transform="translate(-38.8304 -194.3559)" style="fill:#ed1c24"/><path d="M124.7387,303.7213a.298.298,0,0,1-.0356.0032.2464.2464,0,0,1-.19-.0845l-13.14-15.0528a.2468.2468,0,0,1,.0575-.3731l50.7631-30.8913a.2469.2469,0,0,1,.3194.3673L124.89,303.6342A.2476.2476,0,0,1,124.7387,303.7213Zm-12.8-15.2382,12.7549,14.612,36.5219-44.5984Z" transform="translate(-38.8304 -194.3559)" style="fill:#ed1c24"/><path d="M124.7387,303.7213a.2414.2414,0,0,1-.0907-.0025L70.105,292.1311a.2464.2464,0,0,1-.1952-.2565.2391.2391,0,0,1,.226-.2305l41.4034-3.4651a.2457.2457,0,0,1,.2064.0833l13.14,15.0528a.2468.2468,0,0,1-.1465.4062ZM71.8449,291.9964l52.1816,11.086-12.57-14.401Z" transform="translate(-38.8304 -194.3559)" style="fill:#ed1c24"/><circle cx="2.3632" cy="42.9227" r="2.3632" style="fill:#ed1c24"/><circle cx="18.767" cy="53.1583" r="2.3632" style="fill:#ed1c24"/><circle cx="80.3701" cy="28.5699" r="2.3632" style="fill:#ed1c24"/><circle cx="39.5637" cy="2.3632" r="2.3632" style="fill:#ed1c24"/><circle cx="101.7993" cy="7.5483" r="2.3632" style="fill:#ed1c24"/><circle cx="122.8727" cy="63.7335" r="2.3632" style="fill:#ed1c24"/><circle cx="72.8629" cy="94.1641" r="2.3632" style="fill:#ed1c24"/><circle cx="85.6565" cy="108.925" r="2.3632" style="fill:#ed1c24"/><circle cx="31.3798" cy="97.3003" r="2.3632" style="fill:#ed1c24"/><path d="M198.2269,278.9307h.918l1.72,4.7617h.0166l1.7856-4.7617h.8682l-2.3066,5.8535h-.7442Z" transform="translate(-38.8304 -194.3559)" style="fill:#231f20"/><path d="M204.2376,278.9307h.7935v5.8535h-.7935Z" transform="translate(-38.8304 -194.3559)" style="fill:#231f20"/><path d="M206.5365,278.9307h2.0586a2.4159,2.4159,0,0,1,.9262.1523,1.5771,1.5771,0,0,1,.5742.3887,1.3279,1.3279,0,0,1,.294.5293,2.1071,2.1071,0,0,1,.0825.5664,1.5169,1.5169,0,0,1-.0991.542,1.5414,1.5414,0,0,1-.2852.4707,1.6142,1.6142,0,0,1-.455.3554,1.57,1.57,0,0,1-.5992.1778l1.6617,2.6709h-.9922l-1.4883-2.58H207.33v2.58h-.7934Zm.7934,2.5791h1.042a2.7865,2.7865,0,0,0,.459-.0371,1.24,1.24,0,0,0,.4048-.1358.7517.7517,0,0,0,.2856-.2861,1.1416,1.1416,0,0,0,0-.9668.743.743,0,0,0-.2856-.2852,1.2153,1.2153,0,0,0-.4048-.1367,2.8881,2.8881,0,0,0-.459-.0371H207.33Z" transform="translate(-38.8304 -194.3559)" style="fill:#231f20"/><path d="M212.6629,279.6748h-1.8852v-.7441h4.5639v.7441h-1.8847v5.1094h-.794Z" transform="translate(-38.8304 -194.3559)" style="fill:#231f20"/><path d="M216.8709,278.9307v3.5879a2.2945,2.2945,0,0,0,.0747.5664,1.6394,1.6394,0,0,0,.2481.542,1.3567,1.3567,0,0,0,.4546.4052,1.6213,1.6213,0,0,0,1.3891,0,1.3615,1.3615,0,0,0,.4546-.4052,1.6475,1.6475,0,0,0,.2481-.542,2.2931,2.2931,0,0,0,.0742-.5664v-3.5879h.7939v3.7119a2.4035,2.4035,0,0,1-.1738.9306,2.1961,2.1961,0,0,1-.48.7227,2.1165,2.1165,0,0,1-.7192.4717,2.4982,2.4982,0,0,1-1.7857,0,2.12,2.12,0,0,1-.72-.4717,2.2039,2.2039,0,0,1-.48-.7227,2.4034,2.4034,0,0,1-.1733-.9306v-3.7119Z" transform="translate(-38.8304 -194.3559)" style="fill:#231f20"/><path d="M223.8411,278.9307h.7193l2.5054,5.8535H226.14l-.5869-1.4473h-2.7862l-.5791,1.4473h-.9257Zm1.4219,3.7119-1.0913-2.6865h-.0166l-1.1079,2.6865Z" transform="translate(-38.8304 -194.3559)" style="fill:#231f20"/><path d="M227.8265,278.9307h.7935V284.04h2.6875v.7442h-3.481Z" transform="translate(-38.8304 -194.3559)" style="fill:#231f20"/><path d="M237.1029,284.9326a3.1551,3.1551,0,0,1-1.232-.2353,2.8629,2.8629,0,0,1-.9633-.6494,3.0051,3.0051,0,0,1-.6285-.9756,3.367,3.367,0,0,1,0-2.4307,3.0265,3.0265,0,0,1,.6285-.9756,2.8722,2.8722,0,0,1,.9633-.6484,3.33,3.33,0,0,1,2.4639,0,2.8736,2.8736,0,0,1,.9634.6484,3.0262,3.0262,0,0,1,.6284.9756,3.367,3.367,0,0,1,0,2.4307,3.0048,3.0048,0,0,1-.6284.9756,2.8643,2.8643,0,0,1-.9634.6494A3.1546,3.1546,0,0,1,237.1029,284.9326Zm0-.7441a2.1258,2.1258,0,0,0,1.604-.6856,2.2056,2.2056,0,0,0,.4463-.74,2.6854,2.6854,0,0,0,0-1.8106,2.2076,2.2076,0,0,0-.4463-.74,2.1929,2.1929,0,0,0-3.208,0,2.206,2.206,0,0,0-.4463.74,2.6838,2.6838,0,0,0,0,1.8106,2.204,2.204,0,0,0,.4463.74,2.1254,2.1254,0,0,0,1.604.6856Z" transform="translate(-38.8304 -194.3559)" style="fill:#231f20"/><path d="M241.2948,278.9307h1.0415l3.2246,4.8115h.0166v-4.8115h.7939v5.8535h-1.0088l-3.2578-4.8115h-.0166v4.8115h-.7934Z" transform="translate(-38.8304 -194.3559)" style="fill:#231f20"/><path d="M247.8758,278.9307h.7935V284.04h2.688v.7442h-3.4815Z" transform="translate(-38.8304 -194.3559)" style="fill:#231f20"/><path d="M252.1668,278.9307h.794v5.8535h-.794Z" transform="translate(-38.8304 -194.3559)" style="fill:#231f20"/><path d="M254.4647,278.9307h1.042l3.2246,4.8115h.0166v-4.8115h.7939v5.8535H258.533l-3.2578-4.8115h-.0166v4.8115h-.7939Z" transform="translate(-38.8304 -194.3559)" style="fill:#231f20"/><path d="M261.0457,278.9307h3.7793v.7441H261.84v1.7441h2.7783v.7442H261.84V284.04h3.1338v.7442h-3.9278Z" transform="translate(-38.8304 -194.3559)" style="fill:#231f20"/><path d="M268.3963,278.9307h3.68v.7441H269.19v1.835h2.6875v.7441H269.19v2.53h-.794Z" transform="translate(-38.8304 -194.3559)" style="fill:#231f20"/><path d="M273.8289,278.9307v3.5879a2.3369,2.3369,0,0,0,.0743.5664,1.6575,1.6575,0,0,0,.248.542,1.3633,1.3633,0,0,0,.4551.4052,1.62,1.62,0,0,0,1.3887,0,1.3629,1.3629,0,0,0,.455-.4052,1.6374,1.6374,0,0,0,.2481-.542,2.2931,2.2931,0,0,0,.0742-.5664v-3.5879h.7939v3.7119a2.3943,2.3943,0,0,1-.1738.9306,2.1884,2.1884,0,0,1-.48.7227,2.1192,2.1192,0,0,1-.7187.4717,2.5,2.5,0,0,1-1.7862,0,2.1244,2.1244,0,0,1-.72-.4717,2.2039,2.2039,0,0,1-.48-.7227,2.4128,2.4128,0,0,1-.1738-.9306v-3.7119Z" transform="translate(-38.8304 -194.3559)" style="fill:#231f20"/><path d="M280.1864,279.6748h-1.8848v-.7441h4.5645v.7441H280.98v5.1094h-.7939Z" transform="translate(-38.8304 -194.3559)" style="fill:#231f20"/><path d="M284.3953,278.9307v3.5879a2.3369,2.3369,0,0,0,.0743.5664,1.6575,1.6575,0,0,0,.248.542,1.3633,1.3633,0,0,0,.4551.4052,1.62,1.62,0,0,0,1.3887,0,1.3629,1.3629,0,0,0,.455-.4052,1.6354,1.6354,0,0,0,.2481-.542,2.2931,2.2931,0,0,0,.0742-.5664v-3.5879h.794v3.7119a2.3943,2.3943,0,0,1-.1739.9306,2.1884,2.1884,0,0,1-.4795.7227,2.1192,2.1192,0,0,1-.7187.4717,2.5,2.5,0,0,1-1.7862,0,2.1244,2.1244,0,0,1-.72-.4717,2.2039,2.2039,0,0,1-.48-.7227,2.4128,2.4128,0,0,1-.1738-.9306v-3.7119Z" transform="translate(-38.8304 -194.3559)" style="fill:#231f20"/><path d="M289.5291,278.9307h2.06a2.419,2.419,0,0,1,.9258.1523,1.5814,1.5814,0,0,1,.5742.3887,1.3352,1.3352,0,0,1,.294.5293,2.11,2.11,0,0,1,.082.5664,1.5056,1.5056,0,0,1-.0986.542,1.5453,1.5453,0,0,1-.2852.4707,1.6218,1.6218,0,0,1-.4551.3554,1.5664,1.5664,0,0,1-.6.1778l1.6621,2.6709h-.9922l-1.4883-2.58h-.8847v2.58h-.794Zm.794,2.5791h1.042a2.7821,2.7821,0,0,0,.459-.0371,1.25,1.25,0,0,0,.4052-.1358.757.757,0,0,0,.2852-.2861,1.1416,1.1416,0,0,0,0-.9668.7482.7482,0,0,0-.2852-.2852,1.2253,1.2253,0,0,0-.4052-.1367,2.8833,2.8833,0,0,0-.459-.0371h-1.042Z" transform="translate(-38.8304 -194.3559)" style="fill:#231f20"/><path d="M294.5809,278.9307H298.36v.7441h-2.9854v1.7441h2.7784v.7442h-2.7784V284.04h3.1338v.7442h-3.9277Z" transform="translate(-38.8304 -194.3559)" style="fill:#231f20"/><path d="M303.1541,279.6748h-1.8847v-.7441h4.5644v.7441h-1.8857v5.1094h-.794Z" transform="translate(-38.8304 -194.3559)" style="fill:#231f20"/><path d="M306.6766,278.9307h3.7793v.7441h-2.9854v1.7441h2.7783v.7442h-2.7783V284.04h3.1338v.7442h-3.9277Z" transform="translate(-38.8304 -194.3559)" style="fill:#231f20"/><path d="M315.8045,280.1953a1.6435,1.6435,0,0,0-.6279-.4961,1.8821,1.8821,0,0,0-.7852-.1738,2.1081,2.1081,0,0,0-.8974.1865,2.0567,2.0567,0,0,0-.6866.5088,2.3436,2.3436,0,0,0-.4423.7559,2.7221,2.7221,0,0,0-.1573.9306,2.5558,2.5558,0,0,0,.1494.876,2.1783,2.1783,0,0,0,.43.7275,2.0034,2.0034,0,0,0,.6866.4961,2.2189,2.2189,0,0,0,.9179.1817,1.8271,1.8271,0,0,0,.8848-.2061,1.9054,1.9054,0,0,0,.6445-.5791l.67.5049a2.8406,2.8406,0,0,1-.2314.26,2.3014,2.3014,0,0,1-.4385.3388,3.0747,3.0747,0,0,1-.6572.2979,2.8,2.8,0,0,1-.8887.1279,2.8854,2.8854,0,0,1-1.2529-.2646,3.0685,3.0685,0,0,1-1.7568-2.7608,3.4182,3.4182,0,0,1,.2236-1.2529,2.9541,2.9541,0,0,1,.624-.9922,2.7955,2.7955,0,0,1,.9629-.6494,3.2281,3.2281,0,0,1,1.24-.2314,3.0436,3.0436,0,0,1,1.1368.2236,2.1232,2.1232,0,0,1,.914.6865Z" transform="translate(-38.8304 -194.3559)" style="fill:#231f20"/><path d="M317.5487,278.9307h.7939v2.4306h3.0342v-2.4306h.7939v5.8535h-.7939v-2.6787h-3.0342v2.6787h-.7939Z" transform="translate(-38.8304 -194.3559)" style="fill:#231f20"/><path d="M323.6756,278.9307h1.042l3.2246,4.8115h.0166v-4.8115h.794v5.8535H327.744l-3.2578-4.8115H324.47v4.8115h-.794Z" transform="translate(-38.8304 -194.3559)" style="fill:#231f20"/><path d="M332.9442,284.9326a3.149,3.149,0,0,1-1.2315-.2353,2.8664,2.8664,0,0,1-.9639-.6494,2.9889,2.9889,0,0,1-.6279-.9756,3.36,3.36,0,0,1,0-2.4307,3.01,3.01,0,0,1,.6279-.9756,2.8757,2.8757,0,0,1,.9639-.6484,3.33,3.33,0,0,1,2.4639,0,2.8815,2.8815,0,0,1,.9629.6484,3.0084,3.0084,0,0,1,.6279.9756,3.36,3.36,0,0,1,0,2.4307,2.9873,2.9873,0,0,1-.6279.9756,2.8721,2.8721,0,0,1-.9629.6494A3.1574,3.1574,0,0,1,332.9442,284.9326Zm0-.7441a2.13,2.13,0,0,0,1.6045-.6856,2.2283,2.2283,0,0,0,.4462-.74,2.6838,2.6838,0,0,0,0-1.8106,2.23,2.23,0,0,0-.4462-.74,2.1931,2.1931,0,0,0-3.2081,0,2.2162,2.2162,0,0,0-.4472.74,2.6854,2.6854,0,0,0,0,1.8106,2.2142,2.2142,0,0,0,.4472.74,2.1258,2.1258,0,0,0,1.6036.6856Z" transform="translate(-38.8304 -194.3559)" style="fill:#231f20"/><path d="M337.1356,278.9307h.7939V284.04h2.6875v.7442h-3.4814Z" transform="translate(-38.8304 -194.3559)" style="fill:#231f20"/><path d="M344.1141,284.9326a3.1494,3.1494,0,0,1-1.2315-.2353,2.865,2.865,0,0,1-.9638-.6494,2.9875,2.9875,0,0,1-.628-.9756,3.36,3.36,0,0,1,0-2.4307,3.0087,3.0087,0,0,1,.628-.9756,2.8743,2.8743,0,0,1,.9638-.6484,3.33,3.33,0,0,1,2.4639,0,2.8815,2.8815,0,0,1,.9629.6484,3.0068,3.0068,0,0,1,.6279.9756,3.3587,3.3587,0,0,1,0,2.4307,2.9856,2.9856,0,0,1-.6279.9756,2.8721,2.8721,0,0,1-.9629.6494A3.1571,3.1571,0,0,1,344.1141,284.9326Zm0-.7441a2.13,2.13,0,0,0,1.6045-.6856,2.2286,2.2286,0,0,0,.4463-.74,2.6854,2.6854,0,0,0,0-1.8106,2.2306,2.2306,0,0,0-.4463-.74,2.1929,2.1929,0,0,0-3.208,0,2.2164,2.2164,0,0,0-.4473.74,2.6854,2.6854,0,0,0,0,1.8106,2.2144,2.2144,0,0,0,.4473.74,2.1253,2.1253,0,0,0,1.6035.6856Z" transform="translate(-38.8304 -194.3559)" style="fill:#231f20"/><path d="M353.2918,281.51v2.8857a2.73,2.73,0,0,1-.4883.2315,5.0933,5.0933,0,0,1-.5664.17,4.8533,4.8533,0,0,1-.5947.1035,5.3549,5.3549,0,0,1-.5664.0322,3.3509,3.3509,0,0,1-1.3272-.248,2.9205,2.9205,0,0,1-.9843-.669,2.8867,2.8867,0,0,1-.6114-.98,3.3041,3.3041,0,0,1-.2109-1.1778,3.2,3.2,0,0,1,.2275-1.2158,3.0087,3.0087,0,0,1,.628-.9756,2.8753,2.8753,0,0,1,.9638-.6484,3.15,3.15,0,0,1,1.2315-.2363,3.6538,3.6538,0,0,1,1.3232.2031,2.4328,2.4328,0,0,1,.8594.5576l-.5625.6035a2.0708,2.0708,0,0,0-.7685-.4834,2.6563,2.6563,0,0,0-.8516-.1367,2.13,2.13,0,0,0-1.6035.6865,2.2164,2.2164,0,0,0-.4473.74,2.6027,2.6027,0,0,0-.1572.9053,2.4287,2.4287,0,0,0,.1738.9219,2.292,2.292,0,0,0,.48.74,2.217,2.217,0,0,0,.72.4912,2.2456,2.2456,0,0,0,.9014.1778,3.8745,3.8745,0,0,0,.7978-.0781,2.24,2.24,0,0,0,.6407-.2276v-1.6289H351.2V281.51Z" transform="translate(-38.8304 -194.3559)" style="fill:#231f20"/><path d="M356.119,282.2871l-2.2159-3.3564h1.0176l1.5957,2.5713,1.6455-2.5713h.9668l-2.2158,3.3564v2.4971h-.7939Z" transform="translate(-38.8304 -194.3559)" style="fill:#231f20"/><path d="M262.0965,288.8525h.72l2.5049,5.8536h-.9258l-.5869-1.4473h-2.7871l-.5781,1.4473h-.9268Zm1.4219,3.712-1.0908-2.6866h-.0166l-1.1084,2.6866Z" transform="translate(-38.8304 -194.3559)" style="fill:#231f20"/><path d="M266.0809,288.8525h1.042l3.2246,4.8116h.0166v-4.8116h.7939v5.8536h-1.0087l-3.2579-4.8116h-.0166v4.8116h-.7939Z" transform="translate(-38.8304 -194.3559)" style="fill:#231f20"/><path d="M272.53,288.8525h2.042a3.7833,3.7833,0,0,1,1.0879.1407,2.8955,2.8955,0,0,1,.81.3759,2.4,2.4,0,0,1,.57.5411,2.9058,2.9058,0,0,1,.36.6289,3.1567,3.1567,0,0,1,.19.6445,3.3579,3.3579,0,0,1,.0586.5957,2.9407,2.9407,0,0,1-.2071,1.0869,2.7434,2.7434,0,0,1-.6113.9346,3.0228,3.0228,0,0,1-1.0049.6572,3.6055,3.6055,0,0,1-1.3847.2481h-1.91Zm.794,5.1094h1a3.2869,3.2869,0,0,0,.955-.1367,2.3186,2.3186,0,0,0,.79-.4092,1.9685,1.9685,0,0,0,.5371-.6816,2.1762,2.1762,0,0,0,.1982-.9551,2.8484,2.8484,0,0,0-.0908-.6572,1.9716,1.9716,0,0,0-.3428-.7158,2.0476,2.0476,0,0,0-.6992-.5743,2.4747,2.4747,0,0,0-1.1572-.2353h-1.19Z" transform="translate(-38.8304 -194.3559)" style="fill:#231f20"/><path d="M281.0877,288.8525h3.7793v.7442h-2.9853v1.7441H284.66v.7442h-2.7783v1.8769h3.1338v.7442h-3.9278Z" transform="translate(-38.8304 -194.3559)" style="fill:#231f20"/><path d="M287.4959,291.63l-1.9677-2.7774h1.0166l1.5214,2.2491,1.5049-2.2491h.9922l-1.9512,2.77,2.1495,3.084H289.72l-1.6778-2.5381-1.6865,2.5381h-.9844Z" transform="translate(-38.8304 -194.3559)" style="fill:#231f20"/><path d="M292.7205,289.5967h-1.8847v-.7442H295.4v.7442h-1.8857v5.1094h-.794Z" transform="translate(-38.8304 -194.3559)" style="fill:#231f20"/><path d="M296.242,288.8525h3.7793v.7442H297.036v1.7441h2.7783v.7442H297.036v1.8769H300.17v.7442H296.242Z" transform="translate(-38.8304 -194.3559)" style="fill:#231f20"/><path d="M301.2938,288.8525h1.042l3.2246,4.8116h.0166v-4.8116h.7939v5.8536h-1.0088l-3.2578-4.8116h-.0166v4.8116h-.7939Z" transform="translate(-38.8304 -194.3559)" style="fill:#231f20"/><path d="M307.744,288.8525h2.042a3.783,3.783,0,0,1,1.0878.1407,2.8942,2.8942,0,0,1,.81.3759,2.3984,2.3984,0,0,1,.57.5411,2.9063,2.9063,0,0,1,.36.6289,3.1563,3.1563,0,0,1,.1894.6445,3.3485,3.3485,0,0,1,.0586.5957,2.9406,2.9406,0,0,1-.207,1.0869,2.7449,2.7449,0,0,1-.6113.9346,3.0228,3.0228,0,0,1-1.0049.6572,3.6056,3.6056,0,0,1-1.3848.2481h-1.91Zm.7939,5.1094h1a3.2881,3.2881,0,0,0,.9551-.1367,2.3172,2.3172,0,0,0,.79-.4092,1.9685,1.9685,0,0,0,.5371-.6816,2.1748,2.1748,0,0,0,.1983-.9551,2.8539,2.8539,0,0,0-.0908-.6572,1.9732,1.9732,0,0,0-.3428-.7158,2.05,2.05,0,0,0-.6992-.5743,2.4751,2.4751,0,0,0-1.1573-.2353h-1.19Z" transform="translate(-38.8304 -194.3559)" style="fill:#231f20"/><path d="M314.0018,288.8525h3.7793v.7442h-2.9854v1.7441h2.7783v.7442h-2.7783v1.8769H317.93v.7442h-3.9277Z" transform="translate(-38.8304 -194.3559)" style="fill:#231f20"/><path d="M318.9217,288.8525h2.042a3.7833,3.7833,0,0,1,1.0879.1407,2.8968,2.8968,0,0,1,.81.3759,2.4,2.4,0,0,1,.57.5411,2.91,2.91,0,0,1,.36.6289,3.1567,3.1567,0,0,1,.1895.6445,3.3579,3.3579,0,0,1,.0586.5957,2.9407,2.9407,0,0,1-.2071,1.0869,2.7449,2.7449,0,0,1-.6113.9346,3.0228,3.0228,0,0,1-1.0049.6572,3.6055,3.6055,0,0,1-1.3847.2481h-1.91Zm.7939,5.1094h1a3.2876,3.2876,0,0,0,.9551-.1367,2.3186,2.3186,0,0,0,.79-.4092,1.97,1.97,0,0,0,.5371-.6816,2.1762,2.1762,0,0,0,.1982-.9551,2.8539,2.8539,0,0,0-.0908-.6572,1.9732,1.9732,0,0,0-.3428-.7158,2.0476,2.0476,0,0,0-.6992-.5743,2.475,2.475,0,0,0-1.1572-.2353h-1.19Z" transform="translate(-38.8304 -194.3559)" style="fill:#231f20"/><path d="M327.4783,288.8525h2.06a2.4188,2.4188,0,0,1,.9258.1524,1.58,1.58,0,0,1,.5742.3887,1.3345,1.3345,0,0,1,.294.5293,2.1092,2.1092,0,0,1,.082.5664,1.5056,1.5056,0,0,1-.0986.542,1.5465,1.5465,0,0,1-.2852.4707,1.6218,1.6218,0,0,1-.4551.3554,1.5664,1.5664,0,0,1-.6.1778l1.6621,2.6709h-.9922l-1.4882-2.58h-.8848v2.58h-.794Zm.794,2.5791h1.042a2.7712,2.7712,0,0,0,.459-.0371,1.2476,1.2476,0,0,0,.4052-.1357.757.757,0,0,0,.2852-.2861,1.1416,1.1416,0,0,0,0-.9668.7468.7468,0,0,0-.2852-.2852,1.2253,1.2253,0,0,0-.4052-.1367,2.8833,2.8833,0,0,0-.459-.0371h-1.042Z" transform="translate(-38.8304 -194.3559)" style="fill:#231f20"/><path d="M332.53,288.8525h3.7793v.7442H333.324v1.7441h2.7784v.7442H333.324v1.8769h3.1338v.7442H332.53Z" transform="translate(-38.8304 -194.3559)" style="fill:#231f20"/><path d="M339.4178,288.8525h.72l2.5049,5.8536h-.9258l-.5869-1.4473h-2.7871l-.5781,1.4473h-.9268Zm1.4219,3.712-1.0909-2.6866h-.0166l-1.1084,2.6866Z" transform="translate(-38.8304 -194.3559)" style="fill:#231f20"/><path d="M343.4022,288.8525h.7939v5.1094h2.6875v.7442h-3.4814Z" transform="translate(-38.8304 -194.3559)" style="fill:#231f20"/><path d="M347.6932,288.8525h.7939v5.8536h-.7939Z" transform="translate(-38.8304 -194.3559)" style="fill:#231f20"/><path d="M351.2156,289.5967h-1.8847v-.7442h4.5644v.7442H352.01v5.1094h-.794Z" transform="translate(-38.8304 -194.3559)" style="fill:#231f20"/><path d="M356.119,292.209l-2.2159-3.3565h1.0176l1.5957,2.5713,1.6455-2.5713h.9668l-2.2158,3.3565v2.4971h-.7939Z" transform="translate(-38.8304 -194.3559)" style="fill:#231f20"/><path d="M432.31,298.0067H361.9066L373.5077,275.53h80.4129l-7.01,13.5827A16.43,16.43,0,0,1,432.31,298.0067Z" transform="translate(-38.8304 -194.3559)" style="fill:#ed1c24"/><path d="M391.4529,278.9316H395.51l-4.0811,11.1211h6.8448l-1.1963,3.2159H386.1756Z" transform="translate(-38.8304 -194.3559)"/><path d="M414.2654,282.168l-4.0771,11.1006H406.5l.4014-1.045a5.3417,5.3417,0,0,1-3.4248,1.2285c-2.3975,0-4.3858-1.8222-3.8428-5.0576a7.5572,7.5572,0,0,1,7.1016-6.41c1.4961,0,2.63.4492,3.1474,1.5146l.4893-1.331Zm-5.747,5.0586a1.6357,1.6357,0,0,0-1.752-2.13,3.4034,3.4034,0,0,0-3.167,3.1123,1.624,1.624,0,0,0,1.7559,2.11A3.3782,3.3782,0,0,0,408.5184,287.2266Z" transform="translate(-38.8304 -194.3559)"/><path d="M427.32,287.0215a7.562,7.562,0,0,1-7.1054,6.4306c-1.5987,0-2.7793-.5322-3.2491-1.7607l-.5722,1.5772h-3.709l5.5859-15.1963h3.8936l-1.8135,4.9355a5.2468,5.2468,0,0,1,3.1231-1.0234C425.8709,281.9844,427.8612,283.8066,427.32,287.0215Zm-3.9687.2051a1.6363,1.6363,0,0,0-1.7529-2.13,3.4032,3.4032,0,0,0-3.167,3.1123,1.6245,1.6245,0,0,0,1.7568,2.11A3.3951,3.3951,0,0,0,423.3514,287.2266Z" transform="translate(-38.8304 -194.3559)"/><path d="M391.4529,278.9316H395.51l-4.0811,11.1211h6.8448l-1.1963,3.2159H386.1756Z" transform="translate(-38.8304 -194.3559)" style="fill:#fff"/><path d="M414.2654,282.168l-4.0771,11.1006H406.5l.4014-1.045a5.3417,5.3417,0,0,1-3.4248,1.2285c-2.3975,0-4.3858-1.8222-3.8428-5.0576a7.5572,7.5572,0,0,1,7.1016-6.41c1.4961,0,2.63.4492,3.1474,1.5146l.4893-1.331Zm-5.747,5.0586a1.6357,1.6357,0,0,0-1.752-2.13,3.4034,3.4034,0,0,0-3.167,3.1123,1.624,1.624,0,0,0,1.7559,2.11A3.3782,3.3782,0,0,0,408.5184,287.2266Z" transform="translate(-38.8304 -194.3559)" style="fill:#fff"/><path d="M427.32,287.0215a7.562,7.562,0,0,1-7.1054,6.4306c-1.5987,0-2.7793-.5322-3.2491-1.7607l-.5722,1.5772h-3.709l5.5859-15.1963h3.8936l-1.8135,4.9355a5.2468,5.2468,0,0,1,3.1231-1.0234C425.8709,281.9844,427.8612,283.8066,427.32,287.0215Zm-3.9687.2051a1.6363,1.6363,0,0,0-1.7529-2.13,3.4032,3.4032,0,0,0-3.167,3.1123,1.6245,1.6245,0,0,0,1.7568,2.11A3.3951,3.3951,0,0,0,423.3514,287.2266Z" transform="translate(-38.8304 -194.3559)" style="fill:#fff"/><polygon points="165.567 34.092 149.181 60.163 143.451 34.092 131.82 34.092 140.93 74.201 152.103 74.201 177.256 34.092 165.567 34.092"/><path d="M236.7083,227.6465c-14.7251,0-25.0385,10.1411-25.0385,24.0644,0,10.3711,7.6206,17.6475,19.9389,17.6475,14.7256,0,25.0386-10.1416,25.0386-24.0649C256.6473,234.9229,249.0272,227.6465,236.7083,227.6465Zm-4.1255,32.3154c-6.0161,0-9.4536-3.6094-9.4536-8.9385,0-7.5634,4.7554-13.98,12.605-13.98,6.0161,0,9.4541,3.61,9.4541,8.9384C245.1883,253.5449,240.4325,259.9619,232.5828,259.9619Z" transform="translate(-38.8304 -194.3559)"/><path d="M299.7284,241.2256c0-8.0215-5.9014-12.7774-16.1573-12.7774H266.4393l-8.0215,40.1084h11.3447l2.12-10.6572h5.7294l5.959,10.6572h11.86l-6.8184-12.0322C295.6034,254.1172,299.7284,248.6167,299.7284,241.2256Zm-19.3663,7.9067h-6.7607l2.4063-11.7456h5.9589c3.8965,0,6.3028,1.5469,6.3028,4.9278C288.2694,246.7261,285.3475,249.1323,280.3621,249.1323Z" transform="translate(-38.8304 -194.3559)"/><polygon points="301.574 34.092 265.648 34.092 263.815 43.088 276.133 43.088 269.888 74.201 281.233 74.201 287.478 43.088 299.74 43.088 301.574 34.092"/><polygon points="297.788 74.201 329.931 74.201 331.764 65.434 310.737 65.434 312.168 58.1 330.045 58.1 331.706 49.62 313.888 49.62 315.206 42.859 335.431 42.859 337.207 34.092 305.809 34.092 297.788 74.201"/><polygon points="362.057 42.819 353.346 34.162 339.549 34.162 355.158 49.683 362.057 42.819"/><polygon points="409.988 57.949 422.339 34.255 391.932 34.255 391.955 34.233 378.158 34.233 337.8 74.392 351.597 74.392 365.794 60.265 379.978 74.392 393.775 74.392 372.693 53.4 383.573 42.573 408.476 42.573 404.191 50.387 378.333 50.387 403.107 74.333 418.63 74.333 398.141 57.949 409.988 57.949"/></svg>